<svg width="23" height="20" viewBox="0 0 23 20" fill="none" xmlns="http://www.w3.org/2000/svg">
<path d="M20.9159 4.31602C20.6638 4.05519 20.3611 3.84893 20.0264 3.70996C19.6918 3.57099 19.3322 3.50227 18.9701 3.50802H16.5635L16.0149 2.04202C15.8629 1.66997 15.6026 1.3525 15.2679 1.13102C14.945 0.888887 14.5541 0.755195 14.1509 0.749023H8.65257C8.25101 0.756599 7.86198 0.890584 7.54054 1.13202C7.20587 1.3535 6.94555 1.67097 6.79353 2.04302L6.24499 3.50902H3.83741C3.47523 3.50326 3.11571 3.57199 2.78105 3.71096C2.44638 3.84993 2.14367 4.0562 1.8916 4.31703C1.63159 4.56965 1.42595 4.87301 1.28735 5.20838C1.14875 5.54376 1.08014 5.90404 1.08575 6.26703V15.923C1.08001 16.2862 1.14855 16.6467 1.28715 16.9822C1.42575 17.3178 1.63147 17.6213 1.8916 17.874C2.14367 18.1349 2.44638 18.3411 2.78105 18.4801C3.11571 18.6191 3.47523 18.6878 3.83741 18.682H18.9701C19.6998 18.6818 20.3995 18.391 20.9155 17.8737C21.4315 17.3563 21.7215 16.6547 21.7217 15.923V6.26703C21.7275 5.90388 21.6589 5.5434 21.5203 5.20784C21.3817 4.87229 21.176 4.56877 20.9159 4.31602V4.31602Z" stroke="white" stroke-width="1.5"/>
<path d="M11.4042 7.98812C10.6866 7.98678 9.9908 8.23504 9.43534 8.69057C8.87988 9.1461 8.49919 9.7807 8.35818 10.4862C8.21717 11.1917 8.32457 11.9244 8.66206 12.5593C8.99955 13.1943 9.54624 13.6922 10.2089 13.9682C10.8716 14.2443 11.6093 14.2813 12.2961 14.073C12.983 13.8647 13.5766 13.424 13.9756 12.8259C14.3746 12.2279 14.5544 11.5097 14.4844 10.7936C14.4143 10.0775 14.0987 9.40799 13.5914 8.89913C13.3083 8.60551 12.9681 8.37318 12.5919 8.2165C12.2157 8.05981 11.8115 7.98208 11.4042 7.98812V7.98812Z" stroke="white" stroke-width="1.5"/>
</svg>
