<svg width="27" height="27" viewBox="0 0 27 27" fill="none" xmlns="http://www.w3.org/2000/svg">
<path d="M12.968 10.4312C14.4692 10.4312 15.6885 11.6517 15.6885 13.1602C15.6885 14.6686 14.4692 15.8892 12.968 15.8892C11.4668 15.8892 10.2476 14.6686 10.2476 13.1602C10.2476 11.6517 11.4668 10.4312 12.968 10.4312Z" stroke="white"/>
<path d="M15.4404 13.1602C15.4404 11.791 14.3335 10.6812 12.968 10.6812C11.6026 10.6812 10.4956 11.791 10.4956 13.1602C10.4956 14.5293 11.6026 15.6392 12.968 15.6392C14.3335 15.6392 15.4404 14.5293 15.4404 13.1602Z" stroke="white" stroke-width="1.5"/>
<path d="M13.5651 0.781247L13.565 0.781053C13.5215 0.704043 13.4585 0.640155 13.3825 0.595776C13.3066 0.551402 13.2203 0.528076 13.1326 0.528076C13.0449 0.528076 12.9587 0.551402 12.8827 0.595776C12.8068 0.640151 12.7438 0.704031 12.7002 0.78103C12.7002 0.781038 12.7002 0.781045 12.7002 0.781053L9.95365 5.64583L9.95355 5.64601C9.91052 5.72215 9.88811 5.80836 9.88864 5.89604C9.88916 5.98371 9.91261 6.06964 9.95655 6.14524C10.0005 6.22083 10.0633 6.28339 10.1387 6.3268C10.214 6.37021 10.2992 6.393 10.3859 6.39301L13.5651 0.781247ZM13.5651 0.781247L16.3177 5.64601M13.5651 0.781247L16.3177 5.64601M16.3177 5.64601C16.3177 5.64608 16.3178 5.64615 16.3178 5.64621M16.3177 5.64601L16.3178 5.64621M16.3178 5.64621C16.3607 5.7223 16.3831 5.80843 16.3826 5.89604C16.3821 5.98371 16.3586 6.06964 16.3147 6.14524C16.2707 6.22083 16.2079 6.28339 16.1326 6.3268C16.0572 6.37021 15.972 6.393 15.8853 6.39301C15.8853 6.39301 15.8853 6.39301 15.8853 6.39301H10.386L16.3178 5.64621Z" stroke="white"/>
<path d="M13.5691 1.79649L13.1338 1.02628L12.6985 1.79649L10.8064 5.14431L10.3848 5.89032H11.2417H15.0259H15.8828L15.4611 5.14431L13.5691 1.79649ZM12.7014 0.781322L12.7014 0.781317C12.7972 0.611742 12.9622 0.52832 13.1338 0.52832C13.3054 0.52832 13.4704 0.611743 13.5662 0.781322L16.314 5.64331C16.5035 5.97863 16.2606 6.39032 15.8816 6.39032H10.386C10.007 6.39032 9.76407 5.97863 9.95358 5.64331L12.7014 0.781322Z" fill="white" stroke="white"/>
<path d="M12.7031 25.3709L12.7032 25.371C12.7467 25.4481 12.8097 25.5119 12.8857 25.5563C12.9616 25.6007 13.0479 25.624 13.1356 25.624C13.2233 25.624 13.3095 25.6007 13.3855 25.5563L13.6242 25.9649L13.3855 25.5563C13.4614 25.512 13.5244 25.4482 13.5679 25.3713C13.5679 25.3712 13.5679 25.3712 13.5679 25.3712C13.5679 25.3711 13.568 25.3711 13.568 25.371L16.3146 20.5063L16.3147 20.5061C16.3577 20.43 16.3801 20.3437 16.3796 20.2561C16.379 20.1684 16.3556 20.0825 16.3117 20.0069C16.2677 19.9313 16.2049 19.8687 16.1295 19.8253C16.0542 19.7819 15.969 19.7591 15.8823 19.7591L12.7031 25.3709ZM12.7031 25.3709L9.95054 20.5061M12.7031 25.3709L9.95054 20.5061M9.95054 20.5061C9.90752 20.43 9.8851 20.3437 9.88563 20.2561C9.88616 20.1684 9.90961 20.0825 9.95354 20.0069C9.99747 19.9313 10.0603 19.8687 10.1356 19.8253C10.211 19.7819 10.2962 19.7591 10.3829 19.7591C10.3829 19.7591 10.3829 19.7591 10.3829 19.7591H15.8823L9.95054 20.5061Z" stroke="white"/>
<path d="M12.6991 24.3556L13.1344 25.1258L13.5697 24.3556L15.4618 21.0078L15.8834 20.2618H15.0265H11.2423H10.3854L10.8071 21.0078L12.6991 24.3556ZM13.5668 25.3708L13.5668 25.3708C13.471 25.5404 13.3061 25.6238 13.1344 25.6238C12.9628 25.6238 12.7978 25.5404 12.702 25.3708L9.95419 20.5088C9.76468 20.1735 10.0076 19.7618 10.3866 19.7618H15.8822C16.2613 19.7618 16.5041 20.1735 16.3146 20.5088L13.5668 25.3708Z" fill="white" stroke="white"/>
<path d="M0.791392 12.8917L0.791197 12.8918C0.714718 12.9353 0.650938 12.9984 0.606495 13.0749C0.562046 13.1514 0.538574 13.2384 0.538574 13.3271C0.538574 13.4158 0.562046 13.5028 0.606495 13.5793C0.650903 13.6557 0.714619 13.7188 0.791018 13.7623C0.791077 13.7623 0.791137 13.7623 0.791197 13.7624L5.64305 16.5162L5.64323 16.5164C5.71882 16.5593 5.80422 16.5816 5.89092 16.581C5.97763 16.5805 6.06276 16.5572 6.13783 16.5134C6.21291 16.4695 6.27537 16.4065 6.31885 16.3307C6.36233 16.2548 6.38526 16.1688 6.38527 16.0811L0.791392 12.8917ZM0.791392 12.8917L5.64324 10.1318M0.791392 12.8917L5.64324 10.1318M5.64324 10.1318C5.6433 10.1318 5.64336 10.1318 5.64342 10.1317M5.64324 10.1318L5.64342 10.1317M5.64342 10.1317C5.71896 10.0889 5.80429 10.0666 5.89092 10.0671C5.97763 10.0677 6.06276 10.091 6.13783 10.1348C6.21291 10.1787 6.27537 10.2416 6.31885 10.3175C6.36233 10.3934 6.38526 10.4794 6.38527 10.5671C6.38527 10.5671 6.38527 10.5671 6.38527 10.5671V16.0811L5.64342 10.1317Z" stroke="white"/>
<path d="M1.80068 12.8912L1.03556 13.3259L1.80068 13.7607L5.1396 15.6578L5.8866 16.0822V15.223V11.4288V10.5697L5.1396 10.9941L1.80068 12.8912ZM0.791511 13.7612L0.791506 13.7612C0.622981 13.6655 0.538864 13.4998 0.538864 13.3259C0.538864 13.1521 0.622982 12.9864 0.791511 12.8906L5.64057 10.1355C5.97013 9.94826 6.38261 10.1856 6.38261 10.5708V16.0811C6.38261 16.4662 5.97013 16.7036 5.64057 16.5163L0.791511 13.7612Z" fill="white" stroke="white"/>
<path d="M25.3122 13.7594L25.3124 13.7593C25.3889 13.7158 25.4527 13.6527 25.4971 13.5763C25.5416 13.4998 25.5651 13.4127 25.5651 13.324C25.5651 13.2353 25.5416 13.1483 25.4971 13.0718C25.4527 12.9954 25.389 12.9323 25.3127 12.8889C25.3126 12.8889 25.3126 12.8888 25.3126 12.8888C25.3125 12.8888 25.3125 12.8888 25.3124 12.8887L20.4606 10.1349L20.4604 10.1348C20.3848 10.0918 20.2994 10.0696 20.2127 10.0701C20.126 10.0706 20.0409 10.0939 19.9658 10.1378C19.8907 10.1816 19.8283 10.2446 19.7848 10.3204C19.7413 10.3963 19.7184 10.4824 19.7184 10.57L25.3122 13.7594ZM25.3122 13.7594L20.4604 16.5193L25.3122 13.7594ZM19.7136 16.948L19.9658 16.5163C20.0409 16.5601 20.126 16.5835 20.2127 16.584C20.2993 16.5845 20.3847 16.5623 20.4602 16.5194L19.7136 16.948ZM19.7136 16.948L19.9658 16.5163C19.8907 16.4724 19.8283 16.4095 19.7848 16.3336C19.7413 16.2578 19.7184 16.1717 19.7184 16.084C19.7184 16.084 19.7184 16.084 19.7184 16.084V10.5701L19.7136 16.948Z" stroke="white"/>
<path d="M24.303 13.7599L25.0681 13.3252L24.303 12.8905L20.964 10.9934L20.217 10.5689V11.4281V15.2223V16.0815L20.964 15.657L24.303 13.7599ZM25.3121 13.7605L25.5591 14.1952L25.3121 13.7605L20.4631 16.5156C20.1335 16.7029 19.721 16.4655 19.721 16.0803V10.5701C19.721 10.1849 20.1335 9.94753 20.4631 10.1348L25.3121 12.8899L25.3121 12.8899C25.4807 12.9857 25.5648 13.1514 25.5648 13.3252C25.5648 13.499 25.4807 13.6647 25.3121 13.7605Z" fill="white" stroke="white"/>
</svg>
