<svg width="21" height="18" viewBox="0 0 21 18" fill="none" xmlns="http://www.w3.org/2000/svg">
<mask id="path-1-inside-1_2729_63" fill="white">
<path d="M20.0482 4.03794C19.6718 3.80084 19.2092 3.77986 18.8149 3.98049L17.4837 4.65258C16.9914 4.90062 16.686 5.40218 16.686 5.96028V11.2002C16.686 11.7583 16.9914 12.2589 17.4837 12.5088L18.814 13.18C18.9945 13.273 19.1877 13.3177 19.3808 13.3177C19.6125 13.3177 19.8425 13.252 20.0482 13.1234C20.4246 12.8873 20.6491 12.4778 20.6491 12.0291V5.13316C20.6491 4.68449 20.4246 4.27504 20.0482 4.03794Z"/>
</mask>
<path d="M18.8149 3.98049L19.4909 5.31952L19.4951 5.31741L18.8149 3.98049ZM17.4837 4.65258L18.1587 5.99212L18.1597 5.9916L17.4837 4.65258ZM17.4837 12.5088L16.8047 13.8464L16.808 13.848L17.4837 12.5088ZM18.814 13.18L19.501 11.8465L19.4897 11.8408L18.814 13.18ZM20.0482 13.1234L20.8433 14.3954L20.8455 14.394L20.0482 13.1234ZM20.8477 2.76878C20.0253 2.2507 19.0007 2.20297 18.1347 2.64357L19.4951 5.31741C19.4603 5.33508 19.4163 5.34565 19.369 5.34347C19.3217 5.34128 19.2798 5.32673 19.2487 5.30709L20.8477 2.76878ZM18.1389 2.64146L16.8077 3.31355L18.1597 5.9916L19.4909 5.31951L18.1389 2.64146ZM16.8087 3.31303C15.8011 3.82074 15.186 4.84634 15.186 5.96028H18.186C18.186 5.9566 18.1866 5.96186 18.181 5.97099C18.1784 5.97519 18.175 5.97957 18.1706 5.98361C18.1661 5.98777 18.1618 5.99057 18.1587 5.99212L16.8087 3.31303ZM15.186 5.96028V11.2002H18.186V5.96028H15.186ZM15.186 11.2002C15.186 12.316 15.8024 13.3376 16.8047 13.8463L18.1626 11.1713C18.1644 11.1722 18.1678 11.1742 18.1716 11.1778C18.1754 11.1813 18.1786 11.1852 18.181 11.1893C18.1835 11.1933 18.1848 11.1968 18.1856 11.1994C18.1863 11.202 18.186 11.2026 18.186 11.2002H15.186ZM16.808 13.848L18.1383 14.5192L19.4897 11.8408L18.1593 11.1696L16.808 13.848ZM18.127 14.5134C18.5242 14.7181 18.9535 14.8177 19.3808 14.8177V11.8177C19.4219 11.8177 19.4649 11.8279 19.501 11.8465L18.127 14.5134ZM19.3808 14.8177C19.8991 14.8177 20.4037 14.6701 20.8433 14.3954L19.2531 11.8515C19.2813 11.8339 19.326 11.8177 19.3808 11.8177V14.8177ZM20.8455 14.394C21.6652 13.8796 22.1491 12.9868 22.1491 12.0291H19.1491C19.1491 12.0018 19.1563 11.9679 19.1749 11.9341C19.1935 11.9002 19.2206 11.8719 19.2509 11.8529L20.8455 14.394ZM22.1491 12.0291V5.13316H19.1491V12.0291H22.1491ZM22.1491 5.13316C22.1491 4.17501 21.665 3.28362 20.8477 2.76878L19.2487 5.30709C19.2196 5.28878 19.1931 5.26124 19.1747 5.2277C19.1564 5.19426 19.1491 5.16059 19.1491 5.13316H22.1491Z" fill="white" mask="url(#path-1-inside-1_2729_63)"/>
<mask id="path-3-inside-2_2729_63" fill="white">
<path d="M11.5808 15.3174H6.37811C4.20254 15.3174 2.68359 13.8173 2.68359 11.6697V5.49145C2.68359 3.34295 4.20254 1.84375 6.37811 1.84375H11.5808C13.7564 1.84375 15.2753 3.34295 15.2753 5.49145V11.6697C15.2753 13.8173 13.7564 15.3174 11.5808 15.3174Z"/>
</mask>
<path d="M11.5808 13.8174H6.37811V16.8174H11.5808V13.8174ZM6.37811 13.8174C5.64294 13.8174 5.11139 13.5697 4.76893 13.2316C4.42784 12.8948 4.18359 12.3792 4.18359 11.6697H1.18359C1.18359 13.1078 1.69882 14.4161 2.6611 15.3663C3.622 16.3151 4.93772 16.8174 6.37811 16.8174V13.8174ZM4.18359 11.6697V5.49145H1.18359V11.6697H4.18359ZM4.18359 5.49145C4.18359 4.78138 4.42792 4.26593 4.76884 3.92937C5.11117 3.59141 5.64268 3.34375 6.37811 3.34375V0.34375C4.93798 0.34375 3.62223 0.845692 2.66119 1.79446C1.69874 2.74462 1.18359 4.05302 1.18359 5.49145H4.18359ZM6.37811 3.34375H11.5808V0.34375H6.37811V3.34375ZM11.5808 3.34375C12.3162 3.34375 12.8478 3.59141 13.1901 3.92937C13.531 4.26593 13.7753 4.78138 13.7753 5.49145H16.7753C16.7753 4.05302 16.2602 2.74462 15.2977 1.79446C14.3367 0.845692 13.0209 0.34375 11.5808 0.34375V3.34375ZM13.7753 5.49145V11.6697H16.7753V5.49145H13.7753ZM13.7753 11.6697C13.7753 12.3792 13.5311 12.8948 13.19 13.2316C12.8475 13.5697 12.316 13.8174 11.5808 13.8174V16.8174C13.0212 16.8174 14.3369 16.3151 15.2978 15.3663C16.2601 14.4161 16.7753 13.1078 16.7753 11.6697H13.7753Z" fill="white" mask="url(#path-3-inside-2_2729_63)"/>
<path d="M17.8421 1L1 17" stroke="white" stroke-width="1.5"/>
</svg>
