<svg width="25" height="20" viewBox="0 0 25 20" fill="none" xmlns="http://www.w3.org/2000/svg">
<path d="M20.0452 0.75H4.04517C2.25024 0.75 0.795166 2.20507 0.795166 4V16C0.795166 17.7949 2.25024 19.25 4.04517 19.25H20.0452C21.8401 19.25 23.2952 17.7949 23.2952 16V4C23.2952 2.20507 21.8401 0.75 20.0452 0.75Z" stroke="white" stroke-width="1.5"/>
<path d="M12.3348 15H14.2967V13.2432H15.5818V11.5889H14.2967V5.13574H11.3846C9.36115 8.11621 8.2879 9.8457 7.42657 11.4863V13.2432H12.3348V15ZM9.2381 11.5957C10.0379 10.0508 10.8992 8.7041 12.3348 6.59863H12.3758V11.6504H9.2381V11.5957Z" fill="white"/>
</svg>
