<svg width="18" height="21" viewBox="0 0 18 21" fill="none" xmlns="http://www.w3.org/2000/svg">
<path d="M3.08248 11.282H9.9402C11.3152 11.282 12.4322 12.4 12.4322 13.782V17.205C12.4322 18.5869 11.3152 19.705 9.9402 19.705H3.08248C1.70743 19.705 0.590454 18.5869 0.590454 17.205V13.782C0.590454 12.4 1.70743 11.282 3.08248 11.282Z" stroke="white"/>
<path d="M9.94022 11.532H3.08251C1.84318 11.532 0.838501 12.5393 0.838501 13.782V17.205C0.838501 18.4476 1.84318 19.455 3.08251 19.455H9.94022C11.1796 19.455 12.1842 18.4476 12.1842 17.205V13.782C12.1842 12.5393 11.1796 11.532 9.94022 11.532Z" stroke="white" stroke-width="1.5"/>
<path d="M14.7573 14.8419V16.6029L17.0642 18.896V11.9829L14.7573 14.8419Z" stroke="white" stroke-width="1.5" stroke-linejoin="round"/>
<path d="M3.08248 0.5H9.9402C11.3152 0.5 12.4322 1.61803 12.4322 3V6.423C12.4322 7.80497 11.3152 8.923 9.9402 8.923H3.08248C1.70743 8.923 0.590454 7.80497 0.590454 6.423V3C0.590454 1.61803 1.70743 0.5 3.08248 0.5Z" stroke="white"/>
<path d="M9.94022 0.75H3.08251C1.84318 0.75 0.838501 1.75736 0.838501 3V6.423C0.838501 7.66564 1.84318 8.673 3.08251 8.673H9.94022C11.1796 8.673 12.1842 7.66564 12.1842 6.423V3C12.1842 1.75736 11.1796 0.75 9.94022 0.75Z" stroke="white" stroke-width="1.5"/>
<path d="M14.7573 4.05994V5.82092L17.0642 8.11401V1.20093L14.7573 4.05994Z" stroke="white" stroke-width="1.5" stroke-linejoin="round"/>
</svg>
