<svg width="25" height="20" viewBox="0 0 25 20" fill="none" xmlns="http://www.w3.org/2000/svg">
<path d="M20.5717 0.75H4.57172C2.77679 0.75 1.32172 2.20507 1.32172 4V16C1.32172 17.7949 2.77679 19.25 4.57172 19.25H20.5717C22.3666 19.25 23.8217 17.7949 23.8217 16V4C23.8217 2.20507 22.3666 0.75 20.5717 0.75Z" stroke="white" stroke-width="1.5"/>
<path d="M12.2807 14V6.9541H10.8061V9.81543H7.63226V6.9541H6.15765V14H7.63226V11.0312H10.8061V14H12.2807Z" fill="white"/>
<path d="M13.4526 6.9541V14H16.143C18.2573 14 19.5024 12.6865 19.5024 10.4502C19.5024 8.21387 18.2573 6.9541 16.143 6.9541H13.4526ZM14.9272 8.16992H15.9672C17.2661 8.16992 17.9985 8.98047 17.9985 10.4551C17.9985 11.9785 17.2856 12.7793 15.9672 12.7793H14.9272V8.16992Z" fill="white"/>
</svg>
