<svg width="17" height="17" viewBox="0 0 17 17" fill="none" xmlns="http://www.w3.org/2000/svg">
<path d="M0.618553 16.9774V9.97738H7.61855L4.40155 13.1974C5.51151 14.3324 7.03102 14.9738 8.61855 14.9774C11.158 14.9736 13.4201 13.3716 14.2666 10.9774H14.2846C14.3991 10.652 14.4857 10.3175 14.5436 9.97738H16.5556C16.0516 13.9773 12.6501 16.9773 8.61855 16.9774H8.60855C6.48732 16.9837 4.45172 16.1411 2.95555 14.6374L0.618553 16.9774ZM2.69255 7.97738H0.680553C1.1843 3.97898 4.58355 0.97952 8.61355 0.977336H8.61855C10.7402 0.970547 12.7763 1.81322 14.2726 3.31738L16.6186 0.977336V7.97738H9.61855L12.8406 4.75738C11.7294 3.62102 10.2078 2.97952 8.61855 2.97738C6.07911 2.98113 3.81703 4.58316 2.97055 6.97738H2.95255C2.83711 7.30248 2.75044 7.6371 2.69355 7.97738H2.69255Z" fill="white"/>
</svg>
