<svg width="24" height="20" viewBox="0 0 24 20" fill="none" xmlns="http://www.w3.org/2000/svg">
<path d="M20 0.75H4C2.20507 0.75 0.75 2.20507 0.75 4V16C0.75 17.7949 2.20507 19.25 4 19.25H20C21.7949 19.25 23.25 17.7949 23.25 16V4C23.25 2.20507 21.7949 0.75 20 0.75Z" stroke="white" stroke-width="1.5"/>
<path d="M5.66211 11.9932C5.70605 13.3164 6.78516 14.1221 8.47949 14.1221C10.2275 14.1221 11.3359 13.2578 11.3359 11.8906C11.3359 10.8164 10.7207 10.2109 9.30957 9.9082L8.45508 9.72754C7.64453 9.54199 7.30273 9.29785 7.30273 8.86328C7.30273 8.34082 7.79102 7.99414 8.51855 7.99414C9.25586 7.99414 9.77832 8.35547 9.82715 8.95117H11.209C11.1846 7.67676 10.1543 6.83203 8.51367 6.83203C6.94141 6.83203 5.81836 7.69141 5.81836 8.99023C5.81836 10.0205 6.45801 10.6797 7.75684 10.958L8.6748 11.1582C9.52441 11.3486 9.86133 11.6025 9.86133 12.0615C9.86133 12.5791 9.32422 12.9551 8.53809 12.9551C7.75684 12.9551 7.15137 12.5742 7.08301 11.9932H5.66211Z" fill="white"/>
<path d="M12.2441 6.9541V14H14.9346C17.0488 14 18.2939 12.6865 18.2939 10.4502C18.2939 8.21387 17.0488 6.9541 14.9346 6.9541H12.2441ZM13.7188 8.16992H14.7588C16.0576 8.16992 16.79 8.98047 16.79 10.4551C16.79 11.9785 16.0771 12.7793 14.7588 12.7793H13.7188V8.16992Z" fill="white"/>
</svg>
