<svg width="22" height="22" viewBox="0 0 22 22" fill="none" xmlns="http://www.w3.org/2000/svg">
<mask id="path-1-outside-1" maskUnits="userSpaceOnUse" x="0" y="0" width="22" height="22" fill="black">
<rect fill="white" width="22" height="22"/>
<path d="M19.6957 13.1739H18.0678C17.9313 13.6196 17.7526 14.05 17.5357 14.46L18.6856 15.61C18.9317 15.8561 19.0674 16.1839 19.0674 16.533C19.0674 16.8817 18.9317 17.2096 18.6856 17.4557L17.4552 18.6861C16.9635 19.1778 16.1026 19.1791 15.61 18.6861L14.46 17.5361C14.0504 17.753 13.6196 17.9313 13.1739 18.0683V19.6957C13.1739 20.4148 12.5887 21 11.8696 21H10.1304C9.4113 21 8.82609 20.4148 8.82609 19.6957V18.0678C8.38043 17.9309 7.95 17.7526 7.54 17.5357L6.38956 18.6857C5.88087 19.1943 5.05304 19.1943 4.54435 18.6857L3.31348 17.4552C2.80522 16.9465 2.80522 16.1187 3.31348 15.61L4.46348 14.4596C4.24652 14.05 4.06826 13.6191 3.9313 13.1735H2.30435C1.58522 13.1735 1 12.5883 1 11.8691V10.13C1 9.41131 1.58522 8.82609 2.30435 8.82609H3.93217C4.06913 8.38043 4.24739 7.95 4.46435 7.54L3.31435 6.38957C2.80565 5.88087 2.80565 5.05304 3.31435 4.54435L4.54478 3.31348C5.05348 2.80522 5.8813 2.80522 6.39 3.31348L7.54043 4.46348C7.95 4.24652 8.38087 4.06826 8.82652 3.9313V2.30435C8.82652 1.58522 9.41174 1 10.1309 1H11.87C12.5891 1 13.1743 1.58522 13.1743 2.30435V3.93217C13.62 4.06913 14.0509 4.24739 14.4604 4.46435L15.6104 3.31391C16.1035 2.8213 16.9643 2.82217 17.4557 3.31391L18.6861 4.54435C18.9322 4.79044 19.0678 5.11826 19.0678 5.46696C19.0678 5.81609 18.9322 6.14348 18.6861 6.38957L17.5361 7.54C17.753 7.94957 17.9313 8.38043 18.0683 8.82609H19.6957C20.4148 8.82609 21 9.4113 21 10.1304V11.8696C21 12.5887 20.4148 13.1739 19.6957 13.1739ZM20.1304 10.1304C20.1304 9.89087 19.9357 9.69565 19.6957 9.69565H17.7391C17.5409 9.69565 17.3678 9.56131 17.3183 9.36957C17.1643 8.77609 16.93 8.20957 16.6209 7.68609C16.5204 7.51522 16.5478 7.29783 16.6878 7.15783L18.0704 5.77478C18.1522 5.69304 18.1974 5.58391 18.1974 5.46696C18.1974 5.35 18.1522 5.24087 18.0704 5.15913L16.84 3.9287C16.6765 3.76522 16.3883 3.76522 16.2243 3.9287L14.8417 5.31131C14.7017 5.45174 14.4843 5.4787 14.313 5.37826C13.7904 5.06957 13.2239 4.83478 12.63 4.6813C12.4387 4.63217 12.3043 4.45913 12.3043 4.26087V2.30435C12.3043 2.06478 12.1096 1.86957 11.8696 1.86957H10.1304C9.89087 1.86957 9.69565 2.06478 9.69565 2.30435V4.26087C9.69565 4.45913 9.5613 4.63217 9.36957 4.68174C8.77609 4.83522 8.20957 5.06957 7.68609 5.3787C7.61739 5.41957 7.5413 5.43913 7.46522 5.43913C7.35261 5.43913 7.2413 5.39565 7.15739 5.31174L5.77478 3.92913C5.60478 3.75957 5.32913 3.75957 5.15913 3.92913L3.9287 5.15957C3.7587 5.32957 3.7587 5.60565 3.9287 5.77522L5.3113 7.15783C5.45174 7.29826 5.47913 7.51565 5.37826 7.68609C5.06956 8.20957 4.83478 8.77565 4.6813 9.36957C4.63217 9.56131 4.45913 9.69565 4.26087 9.69565H2.30435C2.06478 9.69565 1.86957 9.89087 1.86957 10.1304V11.8696C1.86957 12.1091 2.06478 12.3043 2.30435 12.3043H4.26087C4.45913 12.3043 4.63217 12.4387 4.68174 12.6304C4.83522 13.2239 5.06957 13.7904 5.3787 14.3139C5.47957 14.4848 5.45217 14.7022 5.31174 14.8422L3.92913 16.2248C3.75957 16.3943 3.75957 16.6704 3.92913 16.8404L5.15957 18.0709C5.32957 18.2409 5.60522 18.2404 5.77522 18.0709L7.15783 16.6883C7.29826 16.5478 7.51522 16.52 7.68609 16.6213C8.20957 16.93 8.77565 17.1648 9.36957 17.3183C9.5613 17.3678 9.69565 17.5409 9.69565 17.7391V19.6957C9.69565 19.9352 9.89087 20.1304 10.1304 20.1304H11.8696C12.1096 20.1304 12.3043 19.9352 12.3043 19.6957V17.7391C12.3043 17.5409 12.4387 17.3678 12.6304 17.3183C13.2243 17.1648 13.7909 16.93 14.3135 16.6213C14.4848 16.5204 14.7022 16.5474 14.8422 16.6883L16.2248 18.0709C16.3887 18.2352 16.677 18.2348 16.8404 18.0709L18.0709 16.8404C18.1526 16.7587 18.1978 16.6491 18.1978 16.5326C18.1978 16.4161 18.1526 16.3065 18.0709 16.2248L16.6883 14.8422C16.5483 14.7017 16.5204 14.4843 16.6213 14.3139C16.9304 13.7904 17.1648 13.2243 17.3187 12.6304C17.3678 12.4387 17.5409 12.3043 17.7391 12.3043H19.6957C19.9357 12.3043 20.1304 12.1091 20.1304 11.8696V10.1304Z"/>
</mask>
<path d="M19.6957 13.1739H18.0678C17.9313 13.6196 17.7526 14.05 17.5357 14.46L18.6856 15.61C18.9317 15.8561 19.0674 16.1839 19.0674 16.533C19.0674 16.8817 18.9317 17.2096 18.6856 17.4557L17.4552 18.6861C16.9635 19.1778 16.1026 19.1791 15.61 18.6861L14.46 17.5361C14.0504 17.753 13.6196 17.9313 13.1739 18.0683V19.6957C13.1739 20.4148 12.5887 21 11.8696 21H10.1304C9.4113 21 8.82609 20.4148 8.82609 19.6957V18.0678C8.38043 17.9309 7.95 17.7526 7.54 17.5357L6.38956 18.6857C5.88087 19.1943 5.05304 19.1943 4.54435 18.6857L3.31348 17.4552C2.80522 16.9465 2.80522 16.1187 3.31348 15.61L4.46348 14.4596C4.24652 14.05 4.06826 13.6191 3.9313 13.1735H2.30435C1.58522 13.1735 1 12.5883 1 11.8691V10.13C1 9.41131 1.58522 8.82609 2.30435 8.82609H3.93217C4.06913 8.38043 4.24739 7.95 4.46435 7.54L3.31435 6.38957C2.80565 5.88087 2.80565 5.05304 3.31435 4.54435L4.54478 3.31348C5.05348 2.80522 5.8813 2.80522 6.39 3.31348L7.54043 4.46348C7.95 4.24652 8.38087 4.06826 8.82652 3.9313V2.30435C8.82652 1.58522 9.41174 1 10.1309 1H11.87C12.5891 1 13.1743 1.58522 13.1743 2.30435V3.93217C13.62 4.06913 14.0509 4.24739 14.4604 4.46435L15.6104 3.31391C16.1035 2.8213 16.9643 2.82217 17.4557 3.31391L18.6861 4.54435C18.9322 4.79044 19.0678 5.11826 19.0678 5.46696C19.0678 5.81609 18.9322 6.14348 18.6861 6.38957L17.5361 7.54C17.753 7.94957 17.9313 8.38043 18.0683 8.82609H19.6957C20.4148 8.82609 21 9.4113 21 10.1304V11.8696C21 12.5887 20.4148 13.1739 19.6957 13.1739ZM20.1304 10.1304C20.1304 9.89087 19.9357 9.69565 19.6957 9.69565H17.7391C17.5409 9.69565 17.3678 9.56131 17.3183 9.36957C17.1643 8.77609 16.93 8.20957 16.6209 7.68609C16.5204 7.51522 16.5478 7.29783 16.6878 7.15783L18.0704 5.77478C18.1522 5.69304 18.1974 5.58391 18.1974 5.46696C18.1974 5.35 18.1522 5.24087 18.0704 5.15913L16.84 3.9287C16.6765 3.76522 16.3883 3.76522 16.2243 3.9287L14.8417 5.31131C14.7017 5.45174 14.4843 5.4787 14.313 5.37826C13.7904 5.06957 13.2239 4.83478 12.63 4.6813C12.4387 4.63217 12.3043 4.45913 12.3043 4.26087V2.30435C12.3043 2.06478 12.1096 1.86957 11.8696 1.86957H10.1304C9.89087 1.86957 9.69565 2.06478 9.69565 2.30435V4.26087C9.69565 4.45913 9.5613 4.63217 9.36957 4.68174C8.77609 4.83522 8.20957 5.06957 7.68609 5.3787C7.61739 5.41957 7.5413 5.43913 7.46522 5.43913C7.35261 5.43913 7.2413 5.39565 7.15739 5.31174L5.77478 3.92913C5.60478 3.75957 5.32913 3.75957 5.15913 3.92913L3.9287 5.15957C3.7587 5.32957 3.7587 5.60565 3.9287 5.77522L5.3113 7.15783C5.45174 7.29826 5.47913 7.51565 5.37826 7.68609C5.06956 8.20957 4.83478 8.77565 4.6813 9.36957C4.63217 9.56131 4.45913 9.69565 4.26087 9.69565H2.30435C2.06478 9.69565 1.86957 9.89087 1.86957 10.1304V11.8696C1.86957 12.1091 2.06478 12.3043 2.30435 12.3043H4.26087C4.45913 12.3043 4.63217 12.4387 4.68174 12.6304C4.83522 13.2239 5.06957 13.7904 5.3787 14.3139C5.47957 14.4848 5.45217 14.7022 5.31174 14.8422L3.92913 16.2248C3.75957 16.3943 3.75957 16.6704 3.92913 16.8404L5.15957 18.0709C5.32957 18.2409 5.60522 18.2404 5.77522 18.0709L7.15783 16.6883C7.29826 16.5478 7.51522 16.52 7.68609 16.6213C8.20957 16.93 8.77565 17.1648 9.36957 17.3183C9.5613 17.3678 9.69565 17.5409 9.69565 17.7391V19.6957C9.69565 19.9352 9.89087 20.1304 10.1304 20.1304H11.8696C12.1096 20.1304 12.3043 19.9352 12.3043 19.6957V17.7391C12.3043 17.5409 12.4387 17.3678 12.6304 17.3183C13.2243 17.1648 13.7909 16.93 14.3135 16.6213C14.4848 16.5204 14.7022 16.5474 14.8422 16.6883L16.2248 18.0709C16.3887 18.2352 16.677 18.2348 16.8404 18.0709L18.0709 16.8404C18.1526 16.7587 18.1978 16.6491 18.1978 16.5326C18.1978 16.4161 18.1526 16.3065 18.0709 16.2248L16.6883 14.8422C16.5483 14.7017 16.5204 14.4843 16.6213 14.3139C16.9304 13.7904 17.1648 13.2243 17.3187 12.6304C17.3678 12.4387 17.5409 12.3043 17.7391 12.3043H19.6957C19.9357 12.3043 20.1304 12.1091 20.1304 11.8696V10.1304Z" fill="white"/>
<path d="M19.6957 13.1739H18.0678C17.9313 13.6196 17.7526 14.05 17.5357 14.46L18.6856 15.61C18.9317 15.8561 19.0674 16.1839 19.0674 16.533C19.0674 16.8817 18.9317 17.2096 18.6856 17.4557L17.4552 18.6861C16.9635 19.1778 16.1026 19.1791 15.61 18.6861L14.46 17.5361C14.0504 17.753 13.6196 17.9313 13.1739 18.0683V19.6957C13.1739 20.4148 12.5887 21 11.8696 21H10.1304C9.4113 21 8.82609 20.4148 8.82609 19.6957V18.0678C8.38043 17.9309 7.95 17.7526 7.54 17.5357L6.38956 18.6857C5.88087 19.1943 5.05304 19.1943 4.54435 18.6857L3.31348 17.4552C2.80522 16.9465 2.80522 16.1187 3.31348 15.61L4.46348 14.4596C4.24652 14.05 4.06826 13.6191 3.9313 13.1735H2.30435C1.58522 13.1735 1 12.5883 1 11.8691V10.13C1 9.41131 1.58522 8.82609 2.30435 8.82609H3.93217C4.06913 8.38043 4.24739 7.95 4.46435 7.54L3.31435 6.38957C2.80565 5.88087 2.80565 5.05304 3.31435 4.54435L4.54478 3.31348C5.05348 2.80522 5.8813 2.80522 6.39 3.31348L7.54043 4.46348C7.95 4.24652 8.38087 4.06826 8.82652 3.9313V2.30435C8.82652 1.58522 9.41174 1 10.1309 1H11.87C12.5891 1 13.1743 1.58522 13.1743 2.30435V3.93217C13.62 4.06913 14.0509 4.24739 14.4604 4.46435L15.6104 3.31391C16.1035 2.8213 16.9643 2.82217 17.4557 3.31391L18.6861 4.54435C18.9322 4.79044 19.0678 5.11826 19.0678 5.46696C19.0678 5.81609 18.9322 6.14348 18.6861 6.38957L17.5361 7.54C17.753 7.94957 17.9313 8.38043 18.0683 8.82609H19.6957C20.4148 8.82609 21 9.4113 21 10.1304V11.8696C21 12.5887 20.4148 13.1739 19.6957 13.1739ZM20.1304 10.1304C20.1304 9.89087 19.9357 9.69565 19.6957 9.69565H17.7391C17.5409 9.69565 17.3678 9.56131 17.3183 9.36957C17.1643 8.77609 16.93 8.20957 16.6209 7.68609C16.5204 7.51522 16.5478 7.29783 16.6878 7.15783L18.0704 5.77478C18.1522 5.69304 18.1974 5.58391 18.1974 5.46696C18.1974 5.35 18.1522 5.24087 18.0704 5.15913L16.84 3.9287C16.6765 3.76522 16.3883 3.76522 16.2243 3.9287L14.8417 5.31131C14.7017 5.45174 14.4843 5.4787 14.313 5.37826C13.7904 5.06957 13.2239 4.83478 12.63 4.6813C12.4387 4.63217 12.3043 4.45913 12.3043 4.26087V2.30435C12.3043 2.06478 12.1096 1.86957 11.8696 1.86957H10.1304C9.89087 1.86957 9.69565 2.06478 9.69565 2.30435V4.26087C9.69565 4.45913 9.5613 4.63217 9.36957 4.68174C8.77609 4.83522 8.20957 5.06957 7.68609 5.3787C7.61739 5.41957 7.5413 5.43913 7.46522 5.43913C7.35261 5.43913 7.2413 5.39565 7.15739 5.31174L5.77478 3.92913C5.60478 3.75957 5.32913 3.75957 5.15913 3.92913L3.9287 5.15957C3.7587 5.32957 3.7587 5.60565 3.9287 5.77522L5.3113 7.15783C5.45174 7.29826 5.47913 7.51565 5.37826 7.68609C5.06956 8.20957 4.83478 8.77565 4.6813 9.36957C4.63217 9.56131 4.45913 9.69565 4.26087 9.69565H2.30435C2.06478 9.69565 1.86957 9.89087 1.86957 10.1304V11.8696C1.86957 12.1091 2.06478 12.3043 2.30435 12.3043H4.26087C4.45913 12.3043 4.63217 12.4387 4.68174 12.6304C4.83522 13.2239 5.06957 13.7904 5.3787 14.3139C5.47957 14.4848 5.45217 14.7022 5.31174 14.8422L3.92913 16.2248C3.75957 16.3943 3.75957 16.6704 3.92913 16.8404L5.15957 18.0709C5.32957 18.2409 5.60522 18.2404 5.77522 18.0709L7.15783 16.6883C7.29826 16.5478 7.51522 16.52 7.68609 16.6213C8.20957 16.93 8.77565 17.1648 9.36957 17.3183C9.5613 17.3678 9.69565 17.5409 9.69565 17.7391V19.6957C9.69565 19.9352 9.89087 20.1304 10.1304 20.1304H11.8696C12.1096 20.1304 12.3043 19.9352 12.3043 19.6957V17.7391C12.3043 17.5409 12.4387 17.3678 12.6304 17.3183C13.2243 17.1648 13.7909 16.93 14.3135 16.6213C14.4848 16.5204 14.7022 16.5474 14.8422 16.6883L16.2248 18.0709C16.3887 18.2352 16.677 18.2348 16.8404 18.0709L18.0709 16.8404C18.1526 16.7587 18.1978 16.6491 18.1978 16.5326C18.1978 16.4161 18.1526 16.3065 18.0709 16.2248L16.6883 14.8422C16.5483 14.7017 16.5204 14.4843 16.6213 14.3139C16.9304 13.7904 17.1648 13.2243 17.3187 12.6304C17.3678 12.4387 17.5409 12.3043 17.7391 12.3043H19.6957C19.9357 12.3043 20.1304 12.1091 20.1304 11.8696V10.1304Z" stroke="white" stroke-width="0.6" mask="url(#path-1-outside-1)"/>
<path d="M11 15.0631C8.75975 15.0631 6.93694 13.2403 6.93694 11C6.93694 8.75981 8.75975 6.937 11 6.937C13.2407 6.937 15.063 8.75982 15.063 11C15.063 13.2403 13.2407 15.0631 11 15.0631ZM11 8.10657C9.40457 8.10657 8.10651 9.40463 8.10651 11C8.10651 12.5955 9.40457 13.8935 11 13.8935C12.595 13.8935 13.8935 12.5954 13.8935 11C13.8935 9.40464 12.595 8.10657 11 8.10657Z" fill="white" stroke="white" stroke-width="0.3"/>
</svg>
