<svg width="21" height="20" viewBox="0 0 21 20" fill="none" xmlns="http://www.w3.org/2000/svg">
<path fill-rule="evenodd" clip-rule="evenodd" d="M11.1735 0L10.9954 0.00681312C10.4129 0.060115 9.69617 0.394752 9.21587 0.801603L5.24867 4.03449L3.15535 4.03513C1.59239 4.03513 0.434819 5.20394 0.213375 6.78717C-0.00753906 8.55902 -0.0142459 11.5131 0.213383 13.1398L0.243863 13.3489C0.513857 14.9289 1.61346 15.9648 3.15535 15.9648L5.24981 15.9642L9.31847 19.2695C9.83487 19.7038 10.5772 20.0139 11.1868 19.9989C12.3843 20.0351 13.4674 19.1569 13.8599 17.8463C13.9508 17.5081 14.0064 17.2134 14.055 16.8302L14.1781 15.6942C14.3764 14.11 14.3824 6.42564 14.1959 4.46938L14.1032 3.62547C14.0336 2.98151 13.9738 2.58594 13.868 2.18147C13.4882 0.912895 12.496 0.0574237 11.3356 0.00172932L11.1735 0ZM11.1472 1.71375L11.1906 1.71358C11.6159 1.70118 12.0372 2.04299 12.2176 2.6446L12.2669 2.86137C12.2979 3.01702 12.3258 3.19855 12.3546 3.42768L12.4763 4.51348C12.6638 6.01096 12.6638 13.989 12.4766 15.4839L12.4442 15.7715L12.4062 16.148C12.3479 16.7269 12.301 17.0418 12.2107 17.3784C12.0372 17.9565 11.6165 18.2976 11.1906 18.2852C10.9935 18.2888 10.6402 18.1412 10.4104 17.948L6.0941 14.4423C5.94133 14.3182 5.75051 14.2505 5.55369 14.2505H3.15528C2.46108 14.2505 2.02147 13.8106 1.91318 12.9178C1.70521 11.4306 1.71158 8.62685 1.91284 7.01194C2.02094 6.23972 2.50643 5.74952 3.15528 5.74952H5.55369C5.75103 5.74952 5.94232 5.68144 6.09527 5.55676L10.3114 2.12011C10.5642 1.90619 11.0088 1.71077 11.1472 1.71375ZM18.4257 3.30838C18.1555 2.91969 17.6213 2.82366 17.2326 3.0939C16.8439 3.36415 16.7479 3.89832 17.0181 4.28702C18.0427 5.76075 18.6231 7.72427 18.6231 9.85811C18.6231 11.9917 18.0429 13.954 17.0181 15.428C16.7479 15.8167 16.8439 16.3509 17.2326 16.6211C17.6213 16.8914 18.1555 16.7953 18.4257 16.4066C19.6561 14.637 20.3375 12.3323 20.3375 9.85811C20.3375 7.38366 19.6559 5.07783 18.4257 3.30838Z" fill="white"/>
</svg>
