<svg width="159" height="48" viewBox="0 0 159 48" fill="none" xmlns="http://www.w3.org/2000/svg">
<path d="M49.0344 35.9705C49.1254 36.1098 49.206 36.2557 49.2756 36.4069C49.3414 36.5486 49.3981 36.6944 49.4455 36.8433H42.3469C42.2761 36.6043 42.1875 36.371 42.0817 36.1453L33.4749 16.77C33.3661 16.5725 33.2024 16.4108 33.0035 16.3046C32.8106 16.2063 32.5967 16.1562 32.3802 16.1587C32.1718 16.1555 31.9655 16.2005 31.7774 16.2902C31.5804 16.4005 31.422 16.5689 31.3241 16.7724L22.7932 36.1477C22.6644 36.3672 22.5628 36.6016 22.4906 36.8457H15.5053C15.5538 36.6972 15.6105 36.5515 15.6753 36.4093C15.7457 36.2585 15.8263 36.1127 15.9164 35.9729L25.5818 14.6698C27.1261 12.5106 28.4017 10.9831 32.2029 10.9831C33.608 10.8685 35.0162 11.1634 36.2572 11.8323C37.4981 12.5011 38.5187 13.5152 39.1955 14.7518L49.0344 35.9705Z" fill="#FD7B38"/>
<path d="M28.8128 30.28C28.7929 29.794 28.8709 29.3091 29.0419 28.8538C29.213 28.3986 29.4737 27.9823 29.8086 27.6297C30.1436 27.2771 30.546 26.9954 30.9918 26.8012C31.4377 26.607 31.918 26.5043 32.4043 26.4992C33.3916 26.5109 34.335 26.9099 35.0309 27.6104C35.7268 28.3109 36.1196 29.2567 36.1249 30.2442C36.1301 31.2316 35.7473 32.1815 35.0588 32.8893C34.3703 33.5971 33.4313 34.0061 32.4441 34.0282C31.9571 34.0288 31.475 33.9314 31.0265 33.7417C30.578 33.5521 30.1722 33.2741 29.8334 32.9244C29.4946 32.5746 29.2296 32.1602 29.0542 31.7059C28.8789 31.2516 28.7968 30.7667 28.8128 30.28Z" fill="#FD7B38"/>
<path d="M59.3098 23.8891C59.3098 27.2648 59.3243 30.6405 59.3098 34.0162C59.3599 34.411 59.3264 34.8119 59.2116 35.193C59.0968 35.5741 58.9033 35.9268 58.6434 36.2282C58.3836 36.5297 58.0633 36.7731 57.7033 36.9429C57.3433 37.1126 56.9517 37.2048 56.5538 37.2134C56.1422 37.22 55.7339 37.1402 55.3552 36.9791C54.9764 36.818 54.6357 36.5793 54.3549 36.2783C54.0742 35.9773 53.8596 35.6208 53.7253 35.2318C53.5909 34.8428 53.5396 34.4299 53.5747 34.0198C53.5458 27.2684 53.5458 20.517 53.5747 13.7656C53.5573 13.3674 53.6187 12.9697 53.7554 12.5953C53.8922 12.2209 54.1016 11.8773 54.3716 11.5841C54.6416 11.2909 54.9669 11.0539 55.3287 10.8868C55.6906 10.7198 56.082 10.6259 56.4803 10.6105C56.8774 10.6182 57.2686 10.7075 57.6296 10.873C57.9907 11.0384 58.3139 11.2764 58.579 11.5722C58.8441 11.8679 59.0455 12.215 59.1706 12.592C59.2957 12.9689 59.3418 13.3676 59.3062 13.7632C59.3279 17.1365 59.3098 20.5134 59.3098 23.8891Z" fill="#FD7B38"/>
<path d="M59.1266 47.8252H15.697C11.5353 47.8207 7.54527 46.1655 4.60248 43.2227C1.65969 40.2799 0.00446778 36.2899 0 32.1282V15.697C0.00446778 11.5353 1.65969 7.54527 4.60248 4.60248C7.54527 1.65969 11.5353 0.00446778 15.697 0H59.1266C63.2883 0.00446778 67.2783 1.65969 70.2211 4.60248C73.1638 7.54527 74.8191 11.5353 74.8235 15.697V32.1282C74.8191 36.2899 73.1638 40.2799 70.2211 43.2227C67.2783 46.1655 63.2883 47.8207 59.1266 47.8252ZM15.697 3.33832C12.4193 3.34215 9.27697 4.64601 6.95939 6.96382C4.64181 9.28163 3.33821 12.4241 3.3347 15.7018V32.133C3.33853 35.4105 4.64221 38.5527 6.95976 40.8702C9.27731 43.1878 12.4195 44.4915 15.697 44.4953H59.1266C62.4043 44.4918 65.5468 43.1883 67.8646 40.8707C70.1824 38.5531 71.4863 35.4107 71.4901 32.133V15.697C71.4872 12.4187 70.1837 9.27538 67.8658 6.95702C65.5479 4.63865 62.4049 3.3346 59.1266 3.33109L15.697 3.33832Z" fill="#FD7B38"/>
<path d="M92.6508 35.9188C90.4908 35.9188 88.6428 35.5948 87.1068 34.9468C85.5708 34.2988 84.4068 33.4468 83.6148 32.3908C82.8228 31.3348 82.4028 30.1828 82.3548 28.9348C82.3548 28.7428 82.4268 28.5748 82.5708 28.4308C82.7148 28.2628 82.8948 28.1788 83.1108 28.1788H86.3868C86.6508 28.1788 86.8668 28.2388 87.0348 28.3588C87.2028 28.4788 87.3588 28.6468 87.5028 28.8628C87.7428 29.6788 88.2828 30.3628 89.1228 30.9148C89.9868 31.4668 91.1628 31.7428 92.6508 31.7428C94.3308 31.7428 95.5908 31.4668 96.4308 30.9148C97.2948 30.3388 97.7268 29.5588 97.7268 28.5748C97.7268 27.9268 97.5108 27.3868 97.0788 26.9548C96.6468 26.5228 95.9868 26.1508 95.0988 25.8388C94.2348 25.5028 92.9388 25.1068 91.2108 24.6508C88.3788 23.9788 86.3028 23.0908 84.9828 21.9868C83.6628 20.8828 83.0028 19.2988 83.0028 17.2348C83.0028 15.8428 83.3868 14.6068 84.1548 13.5268C84.9228 12.4228 86.0148 11.5588 87.4308 10.9348C88.8708 10.3108 90.5388 9.99884 92.4348 9.99884C94.4268 9.99884 96.1428 10.3468 97.5828 11.0428C99.0468 11.7388 100.151 12.6148 100.895 13.6708C101.663 14.7028 102.071 15.7348 102.119 16.7668C102.119 16.9588 102.047 17.1388 101.903 17.3068C101.759 17.4508 101.579 17.5228 101.363 17.5228H97.9428C97.4148 17.5228 97.0548 17.3068 96.8628 16.8748C96.7428 16.1068 96.2748 15.4708 95.4588 14.9668C94.6428 14.4388 93.6348 14.1748 92.4348 14.1748C91.1148 14.1748 90.0708 14.4268 89.3028 14.9308C88.5588 15.4348 88.1868 16.1668 88.1868 17.1268C88.1868 17.7748 88.3788 18.3148 88.7628 18.7468C89.1468 19.1788 89.7468 19.5628 90.5628 19.8988C91.3788 20.2108 92.5668 20.5708 94.1268 20.9788C96.2628 21.4588 97.9548 21.9988 99.2028 22.5988C100.475 23.1988 101.411 23.9548 102.011 24.8668C102.611 25.7788 102.911 26.9428 102.911 28.3588C102.911 29.9188 102.479 31.2748 101.615 32.4268C100.775 33.5548 99.5748 34.4188 98.0148 35.0188C96.4788 35.6188 94.6908 35.9188 92.6508 35.9188ZM107.864 35.5588C107.624 35.5588 107.42 35.4748 107.252 35.3068C107.084 35.1388 107 34.9348 107 34.6948V11.2588C107 10.9948 107.072 10.7788 107.216 10.6108C107.384 10.4428 107.6 10.3588 107.864 10.3588H110.78C111.236 10.3588 111.596 10.5868 111.86 11.0428L118.808 23.9308L125.756 11.0428C126.02 10.5868 126.38 10.3588 126.836 10.3588H129.716C129.98 10.3588 130.196 10.4428 130.364 10.6108C130.532 10.7788 130.616 10.9948 130.616 11.2588V34.6948C130.616 34.9588 130.532 35.1748 130.364 35.3428C130.196 35.4868 129.98 35.5588 129.716 35.5588H126.62C126.38 35.5588 126.176 35.4748 126.008 35.3068C125.84 35.1388 125.756 34.9348 125.756 34.6948V19.2148L120.752 28.7188C120.488 29.2468 120.092 29.5108 119.564 29.5108H118.052C117.548 29.5108 117.14 29.2468 116.828 28.7188L111.824 19.2148V34.6948C111.824 34.9348 111.74 35.1388 111.572 35.3068C111.428 35.4748 111.224 35.5588 110.96 35.5588H107.864ZM137.078 35.5588C136.838 35.5588 136.634 35.4748 136.466 35.3068C136.298 35.1388 136.214 34.9348 136.214 34.6948V11.2588C136.214 10.9948 136.286 10.7788 136.43 10.6108C136.598 10.4428 136.814 10.3588 137.078 10.3588H152.954C153.218 10.3588 153.434 10.4428 153.602 10.6108C153.77 10.7788 153.854 10.9948 153.854 11.2588V13.6708C153.854 13.9348 153.77 14.1508 153.602 14.3188C153.434 14.4628 153.218 14.5348 152.954 14.5348H141.146V20.8348H152.162C152.426 20.8348 152.642 20.9188 152.81 21.0868C152.978 21.2548 153.062 21.4708 153.062 21.7348V24.0028C153.062 24.2668 152.978 24.4828 152.81 24.6508C152.642 24.7948 152.426 24.8668 152.162 24.8668H141.146V31.3828H153.242C153.506 31.3828 153.722 31.4668 153.89 31.6348C154.058 31.7788 154.142 31.9828 154.142 32.2468V34.6948C154.142 34.9588 154.058 35.1748 153.89 35.3428C153.722 35.4868 153.506 35.5588 153.242 35.5588H137.078Z" fill="white"/>
</svg>
