<svg width="80" height="60" viewBox="0 0 80 60" fill="none" xmlns="http://www.w3.org/2000/svg">
<path opacity="0.4" d="M77.324 9.771C75.6479 8.71516 73.5879 8.62176 71.8319 9.51516L65.9038 12.5081C63.7118 13.6126 62.3518 15.8461 62.3518 18.3314V41.6654C62.3518 44.1507 63.7118 46.3801 65.9038 47.4928L71.8279 50.4816C72.6319 50.8959 73.4919 51.0948 74.3519 51.0948C75.3839 51.0948 76.4079 50.8024 77.324 50.2299C79 49.1781 80 47.3547 80 45.3568V14.6482C80 12.6502 79 10.8268 77.324 9.771Z" fill="#FD7B38"/>
<path d="M39.6204 60H16.4522C6.76406 60 0 53.3198 0 43.7563V16.2437C0 6.67614 6.76406 0 16.4522 0H39.6204C49.3085 0 56.0725 6.67614 56.0725 16.2437V43.7563C56.0725 53.3198 49.3085 60 39.6204 60Z" fill="#FD7B38"/>
</svg>
