<svg width="16" height="12" viewBox="0 0 16 12" fill="none" xmlns="http://www.w3.org/2000/svg">
<path d="M8 11.7902C6.6879 11.8074 5.38936 11.5093 4.2032 10.9186C3.28375 10.4464 2.45812 9.79419 1.7704 8.99691C1.04195 8.17259 0.468374 7.21052 0.08 6.16154L0 5.89544L0.084 5.62933C0.472652 4.58128 1.04499 3.61946 1.7712 2.79397C2.45867 1.99676 3.28403 1.34459 4.2032 0.872281C5.38937 0.281618 6.6879 -0.0164679 8 0.000701786C9.31209 -0.0164382 10.6106 0.281647 11.7968 0.872281C12.7163 1.34448 13.5419 1.99665 14.2296 2.79397C14.9594 3.61717 15.5332 4.57954 15.92 5.62933L16 5.89544L15.916 6.16154C14.661 9.60052 11.4994 11.8486 8 11.7902ZM8 1.68491C5.2767 1.59508 2.77713 3.26394 1.6936 5.89544C2.77696 8.5271 5.27663 10.196 8 10.106C10.7232 10.1956 13.2227 8.52678 14.3064 5.89544C13.2243 3.26266 10.7238 1.59319 8 1.68491ZM8 8.42175C6.84586 8.4298 5.84749 7.57743 5.61677 6.38704C5.38605 5.19665 5.98742 4.00072 7.05231 3.53221C8.1172 3.06369 9.34819 3.45345 9.99084 4.4626C10.6335 5.47176 10.5083 6.81845 9.692 7.67733C9.24506 8.15334 8.63581 8.42139 8 8.42175Z" fill="white"/>
</svg>
