<svg width="16" height="16" viewBox="0 0 16 16" fill="none" xmlns="http://www.w3.org/2000/svg">
<path d="M14.2222 16H1.77778C0.795938 16 0 15.2041 0 14.2222V1.77778C0 0.795938 0.795938 0 1.77778 0H14.2222C15.2041 0 16 0.795938 16 1.77778V14.2222C16 15.2041 15.2041 16 14.2222 16ZM1.77778 1.77778V14.2222H14.2222V1.77778H1.77778ZM13.3333 12.4444H2.66667L5.33333 8.88889L6.22222 9.77778L8.88889 6.22222L13.3333 12.4444ZM4.88889 7.11111C4.15251 7.11111 3.55556 6.51416 3.55556 5.77778C3.55556 5.0414 4.15251 4.44444 4.88889 4.44444C5.62527 4.44444 6.22222 5.0414 6.22222 5.77778C6.22222 6.51416 5.62527 7.11111 4.88889 7.11111Z" fill="#FD7B38"/>
</svg>
