<svg width="17" height="16" viewBox="0 0 17 16" fill="none" xmlns="http://www.w3.org/2000/svg">
<path d="M1.87729 16C1.63094 15.9996 1.3961 15.8957 1.23006 15.7137C1.06096 15.5332 0.976937 15.2891 0.999099 15.0428L1.21426 12.6769L11.1536 2.74108L14.2598 5.84636L4.32305 15.7813L1.9572 15.9965C1.92998 15.9991 1.90276 16 1.87729 16ZM14.8798 5.22548L11.7745 2.1202L13.6371 0.257561C13.8019 0.0926575 14.0254 0 14.2585 0C14.4915 0 14.7151 0.0926575 14.8798 0.257561L16.7424 2.1202C16.9073 2.28492 17 2.50844 17 2.74152C17 2.9746 16.9073 3.19812 16.7424 3.36284L14.8806 5.22461L14.8798 5.22548Z" fill="white"/>
</svg>
