<svg width="20" height="16" viewBox="0 0 20 16" fill="none" xmlns="http://www.w3.org/2000/svg">
<path d="M5.33333 3.41667C5.5841 3.41667 5.81827 3.29134 5.95737 3.08269L7.5125 0.75H12.0431L13.5982 3.08269C13.7373 3.29134 13.9715 3.41667 14.2222 3.41667H17.7778C18.0504 3.41667 18.3118 3.52495 18.5045 3.71769L19.0349 3.18737L18.5045 3.7177C18.6973 3.91044 18.8056 4.17186 18.8056 4.44444V14.2222C18.8056 14.4948 18.6973 14.7562 18.5045 14.949C18.3118 15.1417 18.0504 15.25 17.7778 15.25H1.77778C1.50519 15.25 1.24378 15.1417 1.05103 14.949C0.858283 14.7562 0.75 14.4948 0.75 14.2222V4.44444C0.75 4.17186 0.858284 3.91044 1.05103 3.7177C1.24377 3.52495 1.50519 3.41667 1.77778 3.41667H5.33333Z" stroke="#4AA541" stroke-width="1.5" stroke-linecap="round" stroke-linejoin="round"/>
<path d="M12.5833 8.88856C12.5833 10.438 11.3273 11.6941 9.77778 11.6941C8.22832 11.6941 6.97223 10.438 6.97223 8.88856C6.97223 7.3391 8.22832 6.08301 9.77778 6.08301C11.3273 6.08301 12.5833 7.3391 12.5833 8.88856Z" stroke="#4AA541" stroke-width="1.5" stroke-linecap="round" stroke-linejoin="round"/>
</svg>
