<svg width="17" height="16" viewBox="0 0 17 16" fill="none" xmlns="http://www.w3.org/2000/svg">
<path d="M0.881683 16C0.635336 15.9996 0.400495 15.8957 0.234457 15.7137C0.0653578 15.5332 -0.0186684 15.2891 0.00349327 15.0428L0.21865 12.6769L10.158 2.74108L13.2642 5.84636L3.32744 15.7813L0.961599 15.9965C0.934375 15.9991 0.907151 16 0.881683 16ZM13.8842 5.22548L10.7789 2.1202L12.6415 0.257561C12.8062 0.0926575 13.0298 0 13.2628 0C13.4959 0 13.7194 0.0926575 13.8842 0.257561L15.7468 2.1202C15.9117 2.28492 16.0044 2.50844 16.0044 2.74152C16.0044 2.9746 15.9117 3.19812 15.7468 3.36284L13.885 5.22461L13.8842 5.22548Z" fill="white"/>
</svg>
