<svg width="31" height="28" viewBox="0 0 31 28" fill="none" xmlns="http://www.w3.org/2000/svg">
<path d="M27.6636 15.8364H3.33676C1.65734 15.8364 0.295898 17.1979 0.295898 18.8773V24.959C0.295898 26.6384 1.65734 27.9999 3.33676 27.9999H27.6636C29.3431 27.9999 30.7045 26.6384 30.7045 24.959V18.8773C30.7045 17.1979 29.3431 15.8364 27.6636 15.8364Z" fill="#4BA541"/>
<path d="M27.6636 0H3.33676C1.65734 0 0.295898 1.36144 0.295898 3.04086V9.12258C0.295898 10.802 1.65734 12.1634 3.33676 12.1634H27.6636C29.3431 12.1634 30.7045 10.802 30.7045 9.12258V3.04086C30.7045 1.36144 29.3431 0 27.6636 0Z" fill="#4BA541"/>
<circle cx="6.8846" cy="6.33431" r="1.26692" fill="#3A6539"/>
<circle cx="6.8846" cy="22.1712" r="1.26692" fill="#3A6539"/>
<rect x="11.0649" y="5.06787" width="13.3027" height="2.53385" rx="1" fill="#3A6539"/>
<rect x="11.0649" y="20.9043" width="13.3027" height="2.53385" rx="1" fill="#3A6539"/>
</svg>
