<svg width="160" height="160" viewBox="0 0 160 160" fill="none" xmlns="http://www.w3.org/2000/svg">
<circle r="80" transform="matrix(1 0 0 -1 80 80)" fill="#403634"/>
<g clip-path="url(#clip0_355:1951)">
<path d="M109.094 45.418C107.831 45.418 106.808 46.4409 106.808 47.7031V58.3731H111.379V47.7031C111.379 46.4409 110.356 45.418 109.094 45.418Z" fill="#FFEBE1"/>
<path d="M101.587 45.418C100.325 45.418 99.3018 46.4409 99.3018 47.7031V58.3731H103.872V47.7031C103.872 46.4409 102.849 45.418 101.587 45.418Z" fill="#FFEBE1"/>
<path d="M107.626 75.0229V105.079C107.626 110.235 103.429 114.43 98.2704 114.43C93.1104 114.43 88.915 110.235 88.915 105.079V101.519C88.915 99.054 86.9071 97.0491 84.4405 97.0491C81.9726 97.0491 79.9666 99.054 79.9666 101.519V104.893C79.9666 110.152 75.6872 114.43 70.4266 114.43H70.4248C67.8778 114.43 65.4832 113.438 63.6806 111.638C61.8787 109.837 60.8855 107.442 60.8855 104.895V87.3247H65.4558V104.895C65.4558 106.22 65.9724 107.468 66.9102 108.405C67.8505 109.343 69.0984 109.86 70.4248 109.86C73.1658 109.86 75.3962 107.632 75.3962 104.893V101.519C75.3962 96.5344 79.453 92.4788 84.4405 92.4788C89.4267 92.4788 93.4853 96.5344 93.4853 101.519V105.079C93.4853 107.715 95.6318 109.86 98.2704 109.86C100.909 109.86 103.056 107.715 103.056 105.079V75.0229H107.626Z" fill="#FFEBE1"/>
<path d="M107.626 75.0229V105.079C107.626 110.235 103.429 114.43 98.2706 114.43C93.1106 114.43 88.9152 110.235 88.9152 105.079V101.519C88.9152 99.054 86.9073 97.0491 84.4407 97.0491V92.4788C89.427 92.4788 93.4855 96.5344 93.4855 101.519V105.079C93.4855 107.715 95.632 109.86 98.2706 109.86C100.909 109.86 103.056 107.715 103.056 105.079V75.0229H107.626Z" fill="#FFEBE1"/>
<path d="M85.3427 53.7284V81.4258C85.3427 86.0087 81.6133 89.7363 77.0323 89.7363H49.3105C44.7277 89.7363 41 86.0087 41 81.4258V53.7284C41 49.1456 44.7277 45.418 49.3105 45.418H77.0323C81.6133 45.418 85.3427 49.1456 85.3427 53.7284Z" fill="#FD7B38"/>
<path d="M85.3426 53.7284V81.4258C85.3426 86.0087 81.6132 89.7363 77.0322 89.7363H63.1707V45.418H77.0322C81.6132 45.418 85.3426 49.1456 85.3426 53.7284Z" fill="#F46216"/>
<path d="M77.3125 67.5777C77.3125 75.3717 70.9706 81.7106 63.1719 81.7118H63.1707C55.3738 81.7118 49.0283 75.3717 49.0283 67.5777C49.0283 59.782 55.3738 53.4419 63.1707 53.4419H63.1719C70.9706 53.4431 77.3125 59.782 77.3125 67.5777Z" fill="white"/>
<path d="M77.3127 67.5777C77.3127 75.3717 70.9708 81.7106 63.1721 81.7118V53.4419C70.9708 53.4431 77.3127 59.782 77.3127 67.5777Z" fill="white"/>
<path d="M66.6995 64.0923C65.4379 64.0923 64.4143 65.1152 64.4143 66.3774V69.4404C64.4143 70.7026 65.4379 71.7255 66.6995 71.7255C67.9617 71.7255 68.9846 70.7026 68.9846 69.4404V66.3774C68.9846 65.1152 67.9617 64.0923 66.6995 64.0923Z" fill="#F46216"/>
<path d="M59.1931 64.0923C57.9315 64.0923 56.908 65.1152 56.908 66.3774V69.4404C56.908 70.7026 57.9315 71.7255 59.1931 71.7255C60.4553 71.7255 61.4783 70.7026 61.4783 69.4404V66.3774C61.4783 65.1152 60.4553 64.0923 59.1931 64.0923Z" fill="#F46216"/>
<path d="M115.956 58.373V70.2481C115.956 74.1406 112.789 77.3077 108.895 77.3077H101.785C97.8927 77.3077 94.7256 74.1406 94.7256 70.2481V58.373H115.956Z" fill="#FD7B38"/>
<path d="M115.956 58.373V70.2481C115.956 74.1406 112.789 77.3077 108.895 77.3077H105.341V58.373H115.956Z" fill="#F46216"/>
<path d="M119 58.373C119 59.6346 117.976 60.6582 116.715 60.6582H93.9656C92.704 60.6582 91.6804 59.6346 91.6804 58.373C91.6804 57.1103 92.704 56.0879 93.9656 56.0879H116.715C117.976 56.0879 119 57.1103 119 58.373Z" fill="#FF9B67"/>
<path d="M119 58.373C119 59.6346 117.976 60.6582 116.715 60.6582H105.341V56.0879H116.715C117.976 56.0879 119 57.1103 119 58.373Z" fill="#F46216"/>
</g>
<defs>
<clipPath id="clip0_355:1951">
<rect width="78" height="78" fill="white" transform="translate(41 41)"/>
</clipPath>
</defs>
</svg>
