<svg width="16" height="16" viewBox="0 0 16 16" fill="none" xmlns="http://www.w3.org/2000/svg">
<path d="M12.3597 15.9998C11.4967 16.0098 10.6788 15.6155 10.1491 14.9341C9.61948 14.2527 9.43911 13.3628 9.66165 12.5289L4.66909 9.67537C3.80638 10.4658 2.54181 10.633 1.50327 10.0942C0.464722 9.55528 -0.126585 8.42502 0.0229477 7.26459C0.17248 6.10415 1.031 5.16072 2.17223 4.90272C3.31346 4.64473 4.49432 5.12712 5.12847 6.11039L9.66086 3.5192C9.60222 3.29764 9.57114 3.06968 9.56834 2.8405C9.55691 1.506 10.4838 0.346726 11.788 0.0641435C13.0923 -0.218439 14.4159 0.453277 14.9578 1.67284C15.4997 2.89241 15.1112 4.32489 14.0273 5.10351C12.9435 5.88213 11.4619 5.79304 10.4791 4.89016L5.57349 7.6935C5.56864 7.90032 5.53973 8.10587 5.48736 8.306L10.4791 11.1588C11.3981 10.3154 12.7655 10.1852 13.8271 10.84C14.8887 11.4948 15.3861 12.7752 15.0449 13.9749C14.7037 15.1746 13.607 16.0016 12.3597 15.9998ZM12.3597 12.0121C11.699 12.0121 11.1634 12.5477 11.1634 13.2084C11.1634 13.8691 11.699 14.4047 12.3597 14.4047C13.0204 14.4047 13.556 13.8691 13.556 13.2084C13.556 12.5477 13.0204 12.0121 12.3597 12.0121ZM2.7893 6.42941C2.1286 6.42941 1.593 6.96501 1.593 7.62571C1.593 8.28641 2.1286 8.82201 2.7893 8.82201C3.45 8.82201 3.9856 8.28641 3.9856 7.62571C3.9856 6.96501 3.45 6.42941 2.7893 6.42941ZM12.3597 1.6442C11.699 1.6442 11.1634 2.1798 11.1634 2.8405C11.1634 3.5012 11.699 4.0368 12.3597 4.0368C13.0204 4.0368 13.556 3.5012 13.556 2.8405C13.556 2.1798 13.0204 1.6442 12.3597 1.6442Z" fill="#FD7B38"/>
</svg>
