<svg width="20" height="20" viewBox="0 0 20 20" fill="none" xmlns="http://www.w3.org/2000/svg">
<path d="M10 20C4.47967 19.994 0.00606237 15.5204 0 10V9.80002C0.109931 4.30455 4.63459 -0.0720257 10.1307 0.000898217C15.6268 0.0738221 20.0337 4.5689 19.9978 10.0654C19.9619 15.5618 15.4966 19.9989 10 20ZM9.984 18H10C14.4167 17.9956 17.9942 14.4127 17.992 9.99602C17.9898 5.57931 14.4087 2.00002 9.992 2.00002C5.57528 2.00002 1.99421 5.57931 1.992 9.99602C1.98979 14.4127 5.56729 17.9956 9.984 18ZM13 14H11V6.00002H13V14ZM9 14H7V6.00002H9V14Z" fill="white"/>
</svg>
