<svg width="20" height="20" viewBox="0 0 20 20" fill="none" xmlns="http://www.w3.org/2000/svg">
<g clip-path="url(#clip0_77:402)">
<path d="M6.16554 0H0V6.25H6.16554V0ZM4.93243 5H1.23311V1.25H4.93243V5Z" fill="white"/>
<path d="M3.69942 2.5H2.46631V3.75H3.69942V2.5Z" fill="white"/>
<path d="M13.5642 0V6.25H19.7297V0H13.5642ZM18.4966 5H14.7973V1.25H18.4966V5Z" fill="white"/>
<path d="M17.2636 2.5H16.0305V3.75H17.2636V2.5Z" fill="white"/>
<path d="M0 20H6.16554V13.75H0V20ZM1.23311 15H4.93243V18.75H1.23311V15Z" fill="white"/>
<path d="M3.69942 16.25H2.46631V17.5H3.69942V16.25Z" fill="white"/>
<path d="M12.331 0H9.86475V1.25H12.331V0Z" fill="white"/>
<path d="M9.8649 5H11.098V3.75H12.3311V2.5H8.63179V1.25H7.39868V2.5V3.125V3.75H9.8649V5Z" fill="white"/>
<path d="M8.63179 5H7.39868V6.25H8.63179V5Z" fill="white"/>
<path d="M12.3311 6.25H11.098V7.5H7.39868V8.75H12.3311V6.25Z" fill="white"/>
<path d="M1.23311 11.25H2.46622V10H1.23311V7.5H0V12.5H1.23311V11.25Z" fill="white"/>
<path d="M3.69942 7.5H2.46631V8.75H3.69942V7.5Z" fill="white"/>
<path d="M7.39854 12.5H9.86476V11.25H8.63165V10H6.16544V7.5H4.93233V10H3.69922V12.5H4.93233V11.25H5.54888H6.16544H7.39854V12.5Z" fill="white"/>
<path d="M12.331 10H11.0979V12.5H12.331V10Z" fill="white"/>
<path d="M11.098 13.75H7.39868V15H9.8649V18.75H7.39868V20H11.098V18.75H13.5642V17.5H11.098V13.75Z" fill="white"/>
<path d="M8.63179 16.25H7.39868V17.5H8.63179V16.25Z" fill="white"/>
<path d="M13.5642 13.75H12.3311V16.25H13.5642V13.75Z" fill="white"/>
<path d="M18.4967 16.25H14.7974V20H16.0305V17.5H18.4967V16.25Z" fill="white"/>
<path d="M19.7296 18.75H17.2634V20H19.7296V18.75Z" fill="white"/>
<path d="M19.7297 13.75H18.4966V15H19.7297V13.75Z" fill="white"/>
<path d="M14.7973 15H16.0304V11.25H13.5642V12.5H14.7973V15Z" fill="white"/>
<path d="M17.2635 8.75H16.0304V7.5H14.7973V8.75H13.5642V10H18.4966V8.75H19.7297V7.5H17.2635V8.75Z" fill="white"/>
<path d="M19.7296 11.25H17.2634V12.5H19.7296V11.25Z" fill="white"/>
</g>
<defs>
<clipPath id="clip0_77:402">
<rect width="19.7297" height="20" fill="white"/>
</clipPath>
</defs>
</svg>
